<svg width="144" height="175" viewBox="0 0 144 175" fill="none" xmlns="http://www.w3.org/2000/svg">
<g filter="url(#filter0_ddddd_56_322)">
<circle cx="72" cy="56" r="53" fill="#3A0CA3"/>
</g>
<g clip-path="url(#clip0_56_322)">
<path d="M91.6711 62.314C91.1464 62.314 90.7102 62.1381 90.3625 61.7862C90.0148 61.4344 89.8409 60.9984 89.8409 60.4783V54.3591H83.7045C83.183 54.3591 82.7457 54.1822 82.3929 53.8283C82.0401 53.4743 81.8636 53.0358 81.8636 52.5126C81.8636 51.9895 82.0401 51.5545 82.3929 51.2077C82.7457 50.861 83.183 50.6876 83.7045 50.6876H89.8409V44.5684C89.8409 44.0483 90.0184 43.6123 90.3732 43.2605C90.7282 42.9086 91.1679 42.7327 91.6926 42.7327C92.2172 42.7327 92.6534 42.9086 93.0011 43.2605C93.3489 43.6123 93.5227 44.0483 93.5227 44.5684V50.6876H99.6591C100.181 50.6876 100.618 50.8645 100.971 51.2184C101.324 51.5724 101.5 52.0109 101.5 52.5341C101.5 53.0572 101.324 53.4922 100.971 53.839C100.618 54.1857 100.181 54.3591 99.6591 54.3591H93.5227V60.4783C93.5227 60.9984 93.3453 61.4344 92.9904 61.7862C92.6355 62.1381 92.1957 62.314 91.6711 62.314ZM67.1364 57.3575C64.4364 57.3575 62.2273 56.5008 60.5091 54.7874C58.7909 53.0741 57.9318 50.8712 57.9318 48.1787C57.9318 45.4863 58.7909 43.2834 60.5091 41.57C62.2273 39.8567 64.4364 39 67.1364 39C69.8364 39 72.0455 39.8567 73.7636 41.57C75.4818 43.2834 76.3409 45.4863 76.3409 48.1787C76.3409 50.8712 75.4818 53.0741 73.7636 54.7874C72.0455 56.5008 69.8364 57.3575 67.1364 57.3575ZM49.3409 77C48.8193 77 48.3821 76.8241 48.0293 76.4722C47.6764 76.1204 47.5 75.6844 47.5 75.1642V71.248C47.5 69.8202 47.8682 68.525 48.6045 67.3623C49.3409 66.1997 50.3636 65.3328 51.6727 64.7617C54.7409 63.4155 57.4683 62.467 59.8548 61.9163C62.2414 61.3655 64.6653 61.0902 67.1264 61.0902C69.5876 61.0902 72.0148 61.3655 74.408 61.9163C76.8011 62.467 79.5114 63.4155 82.5386 64.7617C83.8477 65.3736 84.8807 66.2507 85.6375 67.3929C86.3943 68.5352 86.7727 69.8202 86.7727 71.248V75.1642C86.7727 75.6844 86.5963 76.1204 86.2435 76.4722C85.8906 76.8241 85.4534 77 84.9318 77H49.3409ZM51.1818 73.3285H83.0909V71.248C83.0909 70.5953 82.9273 69.9732 82.6 69.3816C82.2727 68.7901 81.7614 68.3516 81.0659 68.066C78.2023 66.679 75.758 65.7815 73.733 65.3736C71.708 64.9656 69.5091 64.7617 67.1364 64.7617C64.7636 64.7617 62.5648 64.9758 60.5398 65.4042C58.5148 65.8325 56.05 66.7198 53.1455 68.066C52.5318 68.3516 52.0511 68.7901 51.7034 69.3816C51.3557 69.9732 51.1818 70.5953 51.1818 71.248V73.3285ZM67.1364 53.686C68.7318 53.686 70.0511 53.1659 71.0943 52.1256C72.1375 51.0853 72.6591 49.7697 72.6591 48.1787C72.6591 46.5878 72.1375 45.2721 71.0943 44.2319C70.0511 43.1916 68.7318 42.6715 67.1364 42.6715C65.5409 42.6715 64.2216 43.1916 63.1784 44.2319C62.1352 45.2721 61.6136 46.5878 61.6136 48.1787C61.6136 49.7697 62.1352 51.0853 63.1784 52.1256C64.2216 53.1659 65.5409 53.686 67.1364 53.686Z" fill="white"/>
</g>
<defs>
<filter id="filter0_ddddd_56_322" x="0" y="0" width="144" height="175" filterUnits="userSpaceOnUse" color-interpolation-filters="sRGB">
<feFlood flood-opacity="0" result="BackgroundImageFix"/>
<feColorMatrix in="SourceAlpha" type="matrix" values="0 0 0 0 0 0 0 0 0 0 0 0 0 0 0 0 0 0 127 0" result="hardAlpha"/>
<feOffset/>
<feColorMatrix type="matrix" values="0 0 0 0 0 0 0 0 0 0 0 0 0 0 0 0 0 0 0.1 0"/>
<feBlend mode="normal" in2="BackgroundImageFix" result="effect1_dropShadow_56_322"/>
<feColorMatrix in="SourceAlpha" type="matrix" values="0 0 0 0 0 0 0 0 0 0 0 0 0 0 0 0 0 0 127 0" result="hardAlpha"/>
<feOffset dy="3"/>
<feGaussianBlur stdDeviation="3"/>
<feColorMatrix type="matrix" values="0 0 0 0 0 0 0 0 0 0 0 0 0 0 0 0 0 0 0.1 0"/>
<feBlend mode="normal" in2="effect1_dropShadow_56_322" result="effect2_dropShadow_56_322"/>
<feColorMatrix in="SourceAlpha" type="matrix" values="0 0 0 0 0 0 0 0 0 0 0 0 0 0 0 0 0 0 127 0" result="hardAlpha"/>
<feOffset dy="12"/>
<feGaussianBlur stdDeviation="6"/>
<feColorMatrix type="matrix" values="0 0 0 0 0 0 0 0 0 0 0 0 0 0 0 0 0 0 0.09 0"/>
<feBlend mode="normal" in2="effect2_dropShadow_56_322" result="effect3_dropShadow_56_322"/>
<feColorMatrix in="SourceAlpha" type="matrix" values="0 0 0 0 0 0 0 0 0 0 0 0 0 0 0 0 0 0 127 0" result="hardAlpha"/>
<feOffset dy="26"/>
<feGaussianBlur stdDeviation="8"/>
<feColorMatrix type="matrix" values="0 0 0 0 0 0 0 0 0 0 0 0 0 0 0 0 0 0 0.05 0"/>
<feBlend mode="normal" in2="effect3_dropShadow_56_322" result="effect4_dropShadow_56_322"/>
<feColorMatrix in="SourceAlpha" type="matrix" values="0 0 0 0 0 0 0 0 0 0 0 0 0 0 0 0 0 0 127 0" result="hardAlpha"/>
<feOffset dy="47"/>
<feGaussianBlur stdDeviation="9.5"/>
<feColorMatrix type="matrix" values="0 0 0 0 0 0 0 0 0 0 0 0 0 0 0 0 0 0 0.01 0"/>
<feBlend mode="normal" in2="effect4_dropShadow_56_322" result="effect5_dropShadow_56_322"/>
<feBlend mode="normal" in="SourceGraphic" in2="effect5_dropShadow_56_322" result="shape"/>
</filter>
<clipPath id="clip0_56_322">
<rect width="58" height="58" fill="white" transform="translate(43 27)"/>
</clipPath>
</defs>
</svg>
