<svg width="21" height="20" viewBox="0 0 21 20" fill="none" xmlns="http://www.w3.org/2000/svg">
<path d="M9.45 19.975C8.13333 19.9083 6.9 19.6 5.75 19.05C4.6 18.5 3.6 17.7792 2.75 16.8875C1.9 15.9958 1.22917 14.9603 0.7375 13.7808C0.245833 12.6013 0 11.3411 0 10C0 8.61667 0.2625 7.31667 0.7875 6.1C1.3125 4.88333 2.025 3.825 2.925 2.925C3.825 2.025 4.88333 1.3125 6.1 0.7875C7.31667 0.2625 8.61667 0 10 0C12.4833 0 14.6417 0.783333 16.475 2.35C18.3083 3.91667 19.4333 5.88333 19.85 8.25H18.325C18.0417 6.85 17.45 5.6 16.55 4.5C15.65 3.4 14.525 2.575 13.175 2.025V2.475C13.175 3.05833 12.975 3.56667 12.575 4C12.175 4.43333 11.6833 4.65 11.1 4.65H8.925V6.825C8.925 7.10125 8.8125 7.33281 8.5875 7.51967C8.3625 7.70656 8.10833 7.8 7.825 7.8H5.75V10H8.5V13.125H6.825L1.725 8.025C1.64167 8.35833 1.58333 8.68889 1.55 9.01667C1.51667 9.34444 1.5 9.67222 1.5 10C1.5 12.25 2.25833 14.1917 3.775 15.825C5.29167 17.4583 7.18333 18.3417 9.45 18.475V19.975ZM19.25 19.325L15.9 15.975C15.55 16.225 15.1708 16.4167 14.7625 16.55C14.3542 16.6833 13.937 16.75 13.5109 16.75C12.3273 16.75 11.3212 16.3365 10.4928 15.5095C9.66425 14.6826 9.25 13.6784 9.25 12.4971C9.25 11.3157 9.66348 10.3125 10.4905 9.4875C11.3174 8.6625 12.3216 8.25 13.5029 8.25C14.6843 8.25 15.6875 8.66425 16.5125 9.49275C17.3375 10.3212 17.75 11.3273 17.75 12.5109C17.75 12.937 17.6792 13.3542 17.5375 13.7625C17.3958 14.1708 17.2083 14.5583 16.975 14.925L20.325 18.25L19.25 19.325ZM13.4965 15.25C14.2655 15.25 14.9167 14.9845 15.45 14.4535C15.9833 13.9225 16.25 13.2725 16.25 12.5035C16.25 11.7345 15.9845 11.0833 15.4535 10.55C14.9225 10.0167 14.2725 9.75 13.5035 9.75C12.7345 9.75 12.0833 10.0155 11.55 10.5465C11.0167 11.0775 10.75 11.7275 10.75 12.4965C10.75 13.2655 11.0155 13.9167 11.5465 14.45C12.0775 14.9833 12.7275 15.25 13.4965 15.25Z" fill="white"/>
</svg>
