<svg width="17" height="17" viewBox="0 0 17 17" fill="none" xmlns="http://www.w3.org/2000/svg">
<path d="M6.69375 11.174C5.41684 11.174 4.33615 10.7312 3.45169 9.84583C2.56723 8.96041 2.125 7.89201 2.125 6.64062C2.125 5.38923 2.56771 4.32083 3.45313 3.43541C4.33854 2.54999 5.4099 2.10728 6.66719 2.10728C7.92448 2.10728 8.99288 2.54999 9.8724 3.43541C10.7519 4.32083 11.1917 5.39012 11.1917 6.64327C11.1917 7.14914 11.109 7.63819 10.9438 8.11041C10.7785 8.58263 10.5306 9.02534 10.2 9.43854L14.4854 13.6885C14.5917 13.7895 14.6448 13.9181 14.6448 14.0742C14.6448 14.2303 14.5917 14.3615 14.4854 14.4677C14.3792 14.574 14.248 14.6271 14.0919 14.6271C13.9358 14.6271 13.8073 14.574 13.7063 14.4677L9.43854 10.2C9.08438 10.5069 8.67142 10.746 8.19968 10.9172C7.72795 11.0884 7.22597 11.174 6.69375 11.174ZM6.67604 10.1115C7.63524 10.1115 8.45056 9.77204 9.12201 9.09322C9.79345 8.4144 10.1292 7.59687 10.1292 6.64062C10.1292 5.68437 9.79345 4.86683 9.12201 4.18801C8.45056 3.50919 7.63524 3.16978 6.67604 3.16978C5.70701 3.16978 4.88332 3.50919 4.20499 4.18801C3.52666 4.86683 3.1875 5.68437 3.1875 6.64062C3.1875 7.59687 3.52666 8.4144 4.20499 9.09322C4.88332 9.77204 5.70701 10.1115 6.67604 10.1115Z" fill="white"/>
</svg>
