<svg width="123" height="20" viewBox="0 0 123 20" fill="none" xmlns="http://www.w3.org/2000/svg">
<path d="M9.04894 2.92705C9.3483 2.00574 10.6517 2.00574 10.9511 2.92705L12.0206 6.21885C12.1545 6.63087 12.5385 6.90983 12.9717 6.90983H16.4329C17.4016 6.90983 17.8044 8.14945 17.0207 8.71885L14.2205 10.7533C13.87 11.0079 13.7234 11.4593 13.8572 11.8713L14.9268 15.1631C15.2261 16.0844 14.1717 16.8506 13.388 16.2812L10.5878 14.2467C10.2373 13.9921 9.7627 13.9921 9.41221 14.2467L6.61204 16.2812C5.82833 16.8506 4.77385 16.0844 5.0732 15.1631L6.14277 11.8713C6.27665 11.4593 6.12999 11.0079 5.7795 10.7533L2.97933 8.71885C2.19562 8.14945 2.59839 6.90983 3.56712 6.90983H7.02832C7.46154 6.90983 7.8455 6.63087 7.97937 6.21885L9.04894 2.92705Z" fill="#FFC700"/>
<path d="M21.8043 12.7102V11.8409L25.6396 5.77273H26.2702V7.11932H25.8441L22.9464 11.7045V11.7727H28.1112V12.7102H21.8043ZM25.9123 14.5V12.446V12.0412V5.77273H26.918V14.5H25.9123ZM30.815 13.3068L30.7468 13.767C30.6985 14.0909 30.6246 14.4375 30.5252 14.8068C30.4286 15.1761 30.3278 15.5241 30.2227 15.8509C30.1175 16.1776 30.0309 16.4375 29.9627 16.6307H29.1957C29.2326 16.4489 29.2809 16.2088 29.3406 15.9105C29.4002 15.6122 29.4599 15.2784 29.5195 14.9091C29.582 14.5426 29.6332 14.1676 29.6729 13.7841L29.7241 13.3068H30.815ZM35.1871 14.6193C34.6019 14.6193 34.0849 14.5156 33.636 14.3082C33.19 14.098 32.842 13.8097 32.592 13.4432C32.342 13.0739 32.2184 12.6534 32.2212 12.1818C32.2184 11.8125 32.2908 11.4716 32.4386 11.1591C32.5863 10.8437 32.788 10.581 33.0437 10.3707C33.3022 10.1577 33.5906 10.0227 33.9087 9.96591V9.91477C33.4911 9.80682 33.1587 9.57244 32.9116 9.21165C32.6644 8.84801 32.5423 8.43466 32.5451 7.97159C32.5423 7.52841 32.6545 7.1321 32.8817 6.78267C33.109 6.43324 33.4215 6.15767 33.8192 5.95597C34.2198 5.75426 34.6758 5.65341 35.1871 5.65341C35.6928 5.65341 36.1445 5.75426 36.5423 5.95597C36.94 6.15767 37.2525 6.43324 37.4798 6.78267C37.7099 7.1321 37.8263 7.52841 37.8292 7.97159C37.8263 8.43466 37.6999 8.84801 37.4499 9.21165C37.2028 9.57244 36.8746 9.80682 36.4656 9.91477V9.96591C36.7809 10.0227 37.065 10.1577 37.3178 10.3707C37.5707 10.581 37.7724 10.8437 37.9229 11.1591C38.0735 11.4716 38.1502 11.8125 38.1531 12.1818C38.1502 12.6534 38.0224 13.0739 37.7695 13.4432C37.5195 13.8097 37.1715 14.098 36.7255 14.3082C36.2823 14.5156 35.7695 14.6193 35.1871 14.6193ZM35.1871 13.6818C35.582 13.6818 35.9229 13.6179 36.2099 13.4901C36.4968 13.3622 36.7184 13.1818 36.8746 12.9489C37.0309 12.7159 37.1104 12.4432 37.1133 12.1307C37.1104 11.8011 37.0252 11.5099 36.8576 11.2571C36.69 11.0043 36.4613 10.8054 36.1715 10.6605C35.8846 10.5156 35.5565 10.4432 35.1871 10.4432C34.815 10.4432 34.4826 10.5156 34.19 10.6605C33.9002 10.8054 33.6715 11.0043 33.5039 11.2571C33.3391 11.5099 33.2582 11.8011 33.261 12.1307C33.2582 12.4432 33.3335 12.7159 33.4869 12.9489C33.6431 13.1818 33.8661 13.3622 34.1559 13.4901C34.4457 13.6179 34.7894 13.6818 35.1871 13.6818ZM35.1871 9.53977C35.4996 9.53977 35.7766 9.47727 36.0181 9.35227C36.2624 9.22727 36.4542 9.05256 36.5934 8.82812C36.7326 8.60369 36.8036 8.34091 36.8065 8.03977C36.8036 7.74432 36.734 7.48722 36.5977 7.26847C36.4613 7.04687 36.2724 6.87642 36.0309 6.7571C35.7894 6.63494 35.5082 6.57386 35.1871 6.57386C34.8604 6.57386 34.5749 6.63494 34.3306 6.7571C34.0863 6.87642 33.8974 7.04687 33.7638 7.26847C33.6303 7.48722 33.565 7.74432 33.5678 8.03977C33.565 8.34091 33.6317 8.60369 33.7681 8.82812C33.9073 9.05256 34.0991 9.22727 34.3434 9.35227C34.5877 9.47727 34.869 9.53977 35.1871 9.53977Z" fill="black"/>
<path d="M43.5362 10.1364C43.5362 9.0625 43.6754 8.07528 43.9538 7.17472C44.2351 6.27131 44.6357 5.44034 45.1555 4.68182H46.0419C45.8374 4.96307 45.6456 5.30966 45.4666 5.72159C45.2905 6.13068 45.1357 6.58097 45.0021 7.07244C44.8686 7.56108 44.7635 8.06676 44.6868 8.58949C44.6129 9.11222 44.576 9.62784 44.576 10.1364C44.576 10.8125 44.6413 11.4986 44.772 12.1946C44.9027 12.8906 45.0788 13.5369 45.3004 14.1335C45.522 14.7301 45.7692 15.2159 46.0419 15.5909H45.1555C44.6357 14.8324 44.2351 14.0028 43.9538 13.1023C43.6754 12.1989 43.5362 11.2102 43.5362 10.1364ZM50.2873 5.65341C50.6452 5.65625 51.0032 5.72443 51.3612 5.85795C51.7191 5.99148 52.0458 6.21307 52.3413 6.52273C52.6367 6.82955 52.8739 7.24858 53.0529 7.77983C53.2319 8.31108 53.3214 8.97727 53.3214 9.77841C53.3214 10.554 53.2475 11.2429 53.0998 11.8452C52.9549 12.4446 52.7447 12.9503 52.4691 13.3622C52.1964 13.7741 51.864 14.0866 51.4719 14.2997C51.0827 14.5128 50.6424 14.6193 50.1509 14.6193C49.6623 14.6193 49.2262 14.5227 48.8427 14.3295C48.462 14.1335 48.1495 13.8622 47.9052 13.5156C47.6637 13.1662 47.5089 12.7614 47.4407 12.3011H48.4805C48.5742 12.7017 48.7603 13.0327 49.0387 13.294C49.32 13.5526 49.6907 13.6818 50.1509 13.6818C50.8242 13.6818 51.3555 13.3878 51.7447 12.7997C52.1367 12.2116 52.3327 11.3807 52.3327 10.3068H52.2646C52.1055 10.5455 51.9165 10.7514 51.6978 10.9247C51.479 11.098 51.2362 11.2315 50.9691 11.3253C50.7021 11.419 50.418 11.4659 50.1168 11.4659C49.6168 11.4659 49.158 11.3423 48.7404 11.0952C48.3256 10.8452 47.9933 10.5028 47.7433 10.0682C47.4961 9.63068 47.3725 9.13068 47.3725 8.56818C47.3725 8.03409 47.4918 7.54545 47.7305 7.10227C47.9719 6.65625 48.31 6.30114 48.7447 6.03693C49.1822 5.77273 49.6964 5.64489 50.2873 5.65341ZM50.2873 6.59091C49.9293 6.59091 49.6069 6.6804 49.32 6.85938C49.0359 7.03551 48.81 7.27415 48.6424 7.57528C48.4776 7.87358 48.3952 8.20455 48.3952 8.56818C48.3952 8.93182 48.4748 9.26278 48.6339 9.56108C48.7958 9.85653 49.016 10.0923 49.2944 10.2685C49.5756 10.4418 49.8952 10.5284 50.2532 10.5284C50.5231 10.5284 50.7745 10.4759 51.0075 10.3707C51.2404 10.2628 51.4435 10.1165 51.6168 9.93182C51.793 9.74432 51.9308 9.53267 52.0302 9.29688C52.1296 9.05824 52.1793 8.80966 52.1793 8.55114C52.1793 8.21023 52.0969 7.89062 51.9322 7.59233C51.7702 7.29403 51.5458 7.05256 51.2589 6.8679C50.9748 6.68324 50.6509 6.59091 50.2873 6.59091ZM57.7244 14.6193C57.2244 14.6193 56.7741 14.5199 56.3736 14.321C55.973 14.1222 55.652 13.8494 55.4105 13.5028C55.169 13.1562 55.0369 12.7614 55.0142 12.3182H56.0369C56.0767 12.7131 56.2557 13.0398 56.5739 13.2983C56.8949 13.554 57.2784 13.6818 57.7244 13.6818C58.0824 13.6818 58.4006 13.598 58.679 13.4304C58.9602 13.2628 59.1804 13.0327 59.3395 12.7401C59.5014 12.4446 59.5824 12.1108 59.5824 11.7386C59.5824 11.358 59.4986 11.0185 59.331 10.7202C59.1662 10.419 58.9389 10.1818 58.6491 10.0085C58.3594 9.83523 58.0284 9.74716 57.6562 9.74432C57.3892 9.74148 57.1151 9.78267 56.8338 9.8679C56.5526 9.95028 56.321 10.0568 56.1392 10.1875L55.1506 10.0682L55.679 5.77273H60.2131V6.71023H56.5653L56.2585 9.28409H56.3097C56.4886 9.14205 56.7131 9.02415 56.983 8.9304C57.2528 8.83665 57.5341 8.78977 57.8267 8.78977C58.3608 8.78977 58.8366 8.91761 59.2543 9.1733C59.6747 9.42614 60.0043 9.77273 60.2429 10.2131C60.4844 10.6534 60.6051 11.1562 60.6051 11.7216C60.6051 12.2784 60.4801 12.7756 60.2301 13.2131C59.983 13.6477 59.642 13.9915 59.2074 14.2443C58.7727 14.4943 58.2784 14.6193 57.7244 14.6193ZM62.5707 14.5L66.4741 6.77841V6.71023H61.9741V5.77273H67.565V6.76136L63.6786 14.5H62.5707ZM72.6818 14.5V5.77273H75.6307C76.3125 5.77273 76.8722 5.8892 77.3097 6.12216C77.7472 6.35227 78.071 6.66903 78.2812 7.07244C78.4915 7.47585 78.5966 7.93466 78.5966 8.44886C78.5966 8.96307 78.4915 9.41903 78.2812 9.81676C78.071 10.2145 77.7486 10.527 77.3139 10.7543C76.8793 10.9787 76.3239 11.0909 75.6477 11.0909H73.2614V10.1364H75.6136C76.0795 10.1364 76.4545 10.0682 76.7386 9.93182C77.0256 9.79545 77.233 9.60227 77.3608 9.35227C77.4915 9.09943 77.5568 8.7983 77.5568 8.44886C77.5568 8.09943 77.4915 7.79403 77.3608 7.53267C77.2301 7.27131 77.0213 7.0696 76.7344 6.92756C76.4474 6.78267 76.0682 6.71023 75.5966 6.71023H73.7386V14.5H72.6818ZM76.7898 10.5795L78.9375 14.5H77.7102L75.5966 10.5795H76.7898ZM82.8952 14.6364C82.2646 14.6364 81.7205 14.4972 81.2631 14.2188C80.8086 13.9375 80.4577 13.5455 80.2106 13.0426C79.9663 12.5369 79.8441 11.9489 79.8441 11.2784C79.8441 10.608 79.9663 10.017 80.2106 9.50568C80.4577 8.99148 80.8015 8.59091 81.2418 8.30398C81.685 8.0142 82.2021 7.86932 82.793 7.86932C83.1339 7.86932 83.4705 7.92614 83.8029 8.03977C84.1353 8.15341 84.4379 8.33807 84.7106 8.59375C84.9833 8.84659 85.2006 9.18182 85.3626 9.59943C85.5245 10.017 85.6055 10.5312 85.6055 11.142V11.5682H80.56V10.6989H84.5827C84.5827 10.3295 84.5089 10 84.3612 9.71023C84.2163 9.42045 84.0089 9.19176 83.739 9.02415C83.4719 8.85653 83.1566 8.77273 82.793 8.77273C82.3924 8.77273 82.0458 8.87216 81.7532 9.07102C81.4634 9.26705 81.2404 9.52273 81.0842 9.83807C80.9279 10.1534 80.8498 10.4915 80.8498 10.8523V11.4318C80.8498 11.9261 80.935 12.3452 81.1055 12.6889C81.2788 13.0298 81.5188 13.2898 81.8256 13.4688C82.1325 13.6449 82.489 13.733 82.8952 13.733C83.1594 13.733 83.3981 13.696 83.6112 13.6222C83.8271 13.5455 84.0131 13.4318 84.1694 13.2812C84.3256 13.1278 84.4464 12.9375 84.5316 12.7102L85.5032 12.983C85.4009 13.3125 85.229 13.6023 84.9876 13.8523C84.7461 14.0994 84.4478 14.2926 84.0927 14.4318C83.7376 14.5682 83.3384 14.6364 82.8952 14.6364ZM92.2884 7.95455L89.8679 14.5H88.8452L86.4247 7.95455H87.5156L89.3224 13.1705H89.3906L91.1974 7.95455H92.2884ZM93.6158 14.5V7.95455H94.6214V14.5H93.6158ZM94.1271 6.86364C93.9311 6.86364 93.7621 6.79688 93.62 6.66335C93.4808 6.52983 93.4112 6.36932 93.4112 6.18182C93.4112 5.99432 93.4808 5.83381 93.62 5.70028C93.7621 5.56676 93.9311 5.5 94.1271 5.5C94.3232 5.5 94.4908 5.56676 94.63 5.70028C94.772 5.83381 94.843 5.99432 94.843 6.18182C94.843 6.36932 94.772 6.52983 94.63 6.66335C94.4908 6.79688 94.3232 6.86364 94.1271 6.86364ZM99.2077 14.6364C98.5771 14.6364 98.033 14.4972 97.5756 14.2188C97.1211 13.9375 96.7702 13.5455 96.5231 13.0426C96.2788 12.5369 96.1566 11.9489 96.1566 11.2784C96.1566 10.608 96.2788 10.017 96.5231 9.50568C96.7702 8.99148 97.114 8.59091 97.5543 8.30398C97.9975 8.0142 98.5146 7.86932 99.1055 7.86932C99.4464 7.86932 99.783 7.92614 100.115 8.03977C100.448 8.15341 100.75 8.33807 101.023 8.59375C101.296 8.84659 101.513 9.18182 101.675 9.59943C101.837 10.017 101.918 10.5312 101.918 11.142V11.5682H96.8725V10.6989H100.895C100.895 10.3295 100.821 10 100.674 9.71023C100.529 9.42045 100.321 9.19176 100.051 9.02415C99.7844 8.85653 99.4691 8.77273 99.1055 8.77273C98.7049 8.77273 98.3583 8.87216 98.0657 9.07102C97.7759 9.26705 97.5529 9.52273 97.3967 9.83807C97.2404 10.1534 97.1623 10.4915 97.1623 10.8523V11.4318C97.1623 11.9261 97.2475 12.3452 97.418 12.6889C97.5913 13.0298 97.8313 13.2898 98.1381 13.4688C98.445 13.6449 98.8015 13.733 99.2077 13.733C99.4719 13.733 99.7106 13.696 99.9237 13.6222C100.14 13.5455 100.326 13.4318 100.482 13.2812C100.638 13.1278 100.759 12.9375 100.844 12.7102L101.816 12.983C101.713 13.3125 101.542 13.6023 101.3 13.8523C101.059 14.0994 100.76 14.2926 100.405 14.4318C100.05 14.5682 99.6509 14.6364 99.2077 14.6364ZM104.931 14.5L102.936 7.95455H103.993L105.408 12.9659H105.476L106.874 7.95455H107.948L109.328 12.9489H109.397L110.811 7.95455H111.868L109.874 14.5H108.885L107.453 9.47159H107.351L105.919 14.5H104.931ZM117.834 9.42045L116.931 9.67614C116.874 9.52557 116.79 9.37926 116.679 9.23722C116.571 9.09233 116.424 8.97301 116.236 8.87926C116.049 8.78551 115.809 8.73864 115.516 8.73864C115.115 8.73864 114.782 8.83097 114.515 9.01562C114.25 9.19744 114.118 9.42898 114.118 9.71023C114.118 9.96023 114.209 10.1577 114.391 10.3026C114.573 10.4474 114.857 10.5682 115.243 10.6648L116.215 10.9034C116.8 11.0455 117.236 11.2628 117.523 11.5554C117.81 11.8452 117.953 12.2187 117.953 12.6761C117.953 13.0511 117.846 13.3864 117.63 13.6818C117.417 13.9773 117.118 14.2102 116.735 14.3807C116.351 14.5511 115.905 14.6364 115.397 14.6364C114.729 14.6364 114.176 14.4915 113.739 14.2017C113.301 13.9119 113.025 13.4886 112.908 12.9318L113.863 12.6932C113.953 13.0455 114.125 13.3097 114.378 13.4858C114.634 13.6619 114.968 13.75 115.38 13.75C115.848 13.75 116.221 13.6506 116.496 13.4517C116.775 13.25 116.914 13.0085 116.914 12.7273C116.914 12.5 116.834 12.3097 116.675 12.1562C116.516 12 116.272 11.8835 115.942 11.8068L114.851 11.5511C114.252 11.4091 113.811 11.1889 113.53 10.8906C113.252 10.5895 113.113 10.2131 113.113 9.76136C113.113 9.39205 113.216 9.06534 113.424 8.78125C113.634 8.49716 113.919 8.27415 114.28 8.11222C114.644 7.95028 115.056 7.86932 115.516 7.86932C116.164 7.86932 116.672 8.01136 117.042 8.29545C117.414 8.57955 117.678 8.95455 117.834 9.42045ZM121.615 10.8182C121.615 11.892 121.474 12.8807 121.193 13.7841C120.915 14.6847 120.516 15.5142 119.996 16.2727H119.109C119.314 15.9915 119.504 15.6449 119.68 15.233C119.859 14.8239 120.016 14.375 120.149 13.8864C120.283 13.3949 120.386 12.8878 120.46 12.3651C120.537 11.8395 120.575 11.3239 120.575 10.8182C120.575 10.142 120.51 9.45597 120.379 8.75994C120.249 8.06392 120.072 7.41761 119.851 6.82102C119.629 6.22443 119.382 5.73864 119.109 5.36364H119.996C120.516 6.12216 120.915 6.95312 121.193 7.85653C121.474 8.7571 121.615 9.74432 121.615 10.8182Z" fill="#979797"/>
</svg>
