<svg width="134" height="27" viewBox="0 0 134 27" fill="none" xmlns="http://www.w3.org/2000/svg">
<path d="M8.50001 19.1845C10.0701 17.756 11.23 16.4603 11.9797 15.2975C12.7294 14.1346 13.1042 13.1105 13.1042 12.2251C13.1042 10.8345 12.6597 9.69589 11.7709 8.80923C10.882 7.92258 9.79174 7.47925 8.50001 7.47925C7.20828 7.47925 6.11799 7.92258 5.22914 8.80923C4.34028 9.69589 3.89584 10.8345 3.89584 12.2251C3.89584 13.1105 4.27952 14.1346 5.04689 15.2975C5.81425 16.4603 6.96529 17.756 8.50001 19.1845ZM8.49558 20.2292C8.36867 20.2292 8.24324 20.2086 8.11928 20.1673C7.99532 20.1259 7.88612 20.0581 7.79168 19.9636C7.29584 19.515 6.75869 18.9985 6.18022 18.4141C5.60175 17.8298 5.06459 17.2011 4.56876 16.5282C4.07293 15.8553 3.65973 15.1529 3.32918 14.4209C2.99862 13.689 2.83334 12.957 2.83334 12.2251C2.83334 10.4542 3.40296 9.04348 4.5422 7.99279C5.68143 6.9421 7.00071 6.41675 8.50001 6.41675C9.99932 6.41675 11.3186 6.9421 12.4578 7.99279C13.5971 9.04348 14.1667 10.4542 14.1667 12.2251C14.1667 12.957 14.0014 13.689 13.6708 14.4209C13.3403 15.1529 12.9271 15.8553 12.4313 16.5282C11.9354 17.2011 11.3983 17.8298 10.8198 18.4141C10.2413 18.9985 9.70418 19.515 9.20834 19.9636C9.1139 20.0581 9.00322 20.1259 8.87631 20.1673C8.7494 20.2086 8.62249 20.2292 8.49558 20.2292ZM8.50159 13.323C8.8429 13.323 9.13456 13.2015 9.37657 12.9584C9.61859 12.7153 9.73959 12.4232 9.73959 12.0818C9.73959 11.7405 9.61806 11.4489 9.375 11.2069C9.13194 10.9648 8.83976 10.8438 8.49844 10.8438C8.15712 10.8438 7.86546 10.9654 7.62345 11.2084C7.38143 11.4515 7.26043 11.7437 7.26043 12.085C7.26043 12.4263 7.38196 12.718 7.62502 12.96C7.86808 13.202 8.16026 13.323 8.50159 13.323Z" fill="black"/>
<path d="M21.531 19V8.09091H25.4195C26.2647 8.09091 26.966 8.23651 27.5236 8.5277C28.0847 8.81889 28.5037 9.22195 28.7807 9.73686C29.0577 10.2482 29.1962 10.8395 29.1962 11.5107C29.1962 12.1783 29.0559 12.766 28.7753 13.2738C28.4984 13.7781 28.0793 14.1705 27.5182 14.451C26.9607 14.7315 26.2594 14.8718 25.4142 14.8718H22.4685V13.4549H25.265C25.7977 13.4549 26.231 13.3786 26.5648 13.2259C26.9021 13.0732 27.1489 12.8512 27.3052 12.56C27.4614 12.2688 27.5396 11.919 27.5396 11.5107C27.5396 11.0987 27.4597 10.7418 27.2998 10.44C27.1436 10.1381 26.8968 9.90732 26.5594 9.74751C26.2256 9.58416 25.7871 9.50249 25.2437 9.50249H23.177V19H21.531ZM26.9163 14.0781L29.6116 19H27.7366L25.0946 14.0781H26.9163ZM32.1205 19.1012C31.8293 19.1012 31.579 18.9982 31.3695 18.7923C31.1599 18.5827 31.0552 18.3306 31.0552 18.0359C31.0552 17.7447 31.1599 17.4961 31.3695 17.2901C31.579 17.0806 31.8293 16.9759 32.1205 16.9759C32.4117 16.9759 32.6621 17.0806 32.8716 17.2901C33.0811 17.4961 33.1859 17.7447 33.1859 18.0359C33.1859 18.2312 33.1361 18.4105 33.0367 18.5739C32.9408 18.7337 32.813 18.8615 32.6532 18.9574C32.4934 19.0533 32.3158 19.1012 32.1205 19.1012ZM46.6238 11.5373C46.5208 11.2141 46.3823 10.9247 46.2083 10.669C46.0379 10.4098 45.8337 10.1896 45.5957 10.0085C45.3578 9.82386 45.0862 9.68359 44.7808 9.58771C44.4789 9.49183 44.1469 9.44389 43.7847 9.44389C43.1703 9.44389 42.6163 9.60192 42.1227 9.91797C41.6291 10.234 41.2385 10.6974 40.9509 11.3082C40.6668 11.9155 40.5247 12.6594 40.5247 13.5401C40.5247 14.4244 40.6685 15.1719 40.9562 15.7827C41.2438 16.3935 41.638 16.8569 42.1387 17.1729C42.6394 17.489 43.2094 17.647 43.8486 17.647C44.4416 17.647 44.9583 17.5263 45.3987 17.2848C45.8426 17.0433 46.1852 16.7024 46.4267 16.2621C46.6717 15.8182 46.7943 15.2962 46.7943 14.696L47.2204 14.7759H44.0989V13.4176H48.3869V14.6587C48.3869 15.5749 48.1916 16.3704 47.801 17.0451C47.4139 17.7163 46.8777 18.2347 46.1923 18.6005C45.5105 18.9663 44.7293 19.1491 43.8486 19.1491C42.8614 19.1491 41.9949 18.9219 41.2492 18.4673C40.507 18.0128 39.9281 17.3683 39.5127 16.5337C39.0972 15.6957 38.8894 14.7013 38.8894 13.5508C38.8894 12.6808 39.0102 11.8995 39.2516 11.207C39.4931 10.5146 39.8323 9.92685 40.269 9.44389C40.7094 8.95739 41.2261 8.58629 41.8191 8.33061C42.4157 8.07138 43.0673 7.94176 43.774 7.94176C44.3635 7.94176 44.9122 8.02876 45.42 8.20277C45.9313 8.37678 46.3859 8.62358 46.7836 8.94318C47.1849 9.26278 47.5169 9.64276 47.7797 10.0831C48.0425 10.5199 48.22 11.0046 48.3124 11.5373H46.6238ZM50.4763 19V8.09091H54.3648C55.21 8.09091 55.9114 8.23651 56.4689 8.5277C57.03 8.81889 57.449 9.22195 57.726 9.73686C58.003 10.2482 58.1415 10.8395 58.1415 11.5107C58.1415 12.1783 58.0012 12.766 57.7207 13.2738C57.4437 13.7781 57.0246 14.1705 56.4636 14.451C55.906 14.7315 55.2047 14.8718 54.3595 14.8718H51.4138V13.4549H54.2104C54.743 13.4549 55.1763 13.3786 55.5101 13.2259C55.8474 13.0732 56.0942 12.8512 56.2505 12.56C56.4067 12.2688 56.4849 11.919 56.4849 11.5107C56.4849 11.0987 56.405 10.7418 56.2452 10.44C56.0889 10.1381 55.8421 9.90732 55.5047 9.74751C55.1709 9.58416 54.7324 9.50249 54.1891 9.50249H52.1223V19H50.4763ZM55.8616 14.0781L58.557 19H56.682L54.0399 14.0781H55.8616ZM61.0658 19H59.3187L63.2445 8.09091H65.1461L69.0719 19H67.3247L64.2405 10.0724H64.1553L61.0658 19ZM61.3588 14.728H67.0264V16.1129H61.3588V14.728ZM79.4523 8.09091V19H77.9395L72.3944 10.9993H72.2932V19H70.6472V8.09091H72.1707L77.7211 16.1023H77.8223V8.09091H79.4523ZM85.3849 19H81.8533V8.09091H85.4968C86.5657 8.09091 87.4836 8.3093 88.2507 8.74609C89.0177 9.17933 89.6054 9.80256 90.0138 10.6158C90.4257 11.4254 90.6317 12.3967 90.6317 13.5295C90.6317 14.6658 90.424 15.6424 90.0085 16.4592C89.5965 17.2759 89 17.9045 88.2187 18.3448C87.4375 18.7816 86.4929 19 85.3849 19ZM83.4992 17.5618H85.2943C86.1253 17.5618 86.816 17.4055 87.3664 17.093C87.9169 16.777 88.3288 16.3207 88.6022 15.7241C88.8757 15.1239 89.0124 14.3924 89.0124 13.5295C89.0124 12.6737 88.8757 11.9474 88.6022 11.3509C88.3323 10.7543 87.9293 10.3015 87.3931 9.99254C86.8568 9.68359 86.191 9.52912 85.3956 9.52912H83.4992V17.5618ZM92.6785 19V8.09091H99.518V9.50781H94.3244V12.8317H99.1611V14.2433H94.3244V17.5831H99.5819V19H92.6785ZM111.636 10.9567C111.579 10.4524 111.345 10.0618 110.933 9.7848C110.521 9.50426 110.003 9.36399 109.378 9.36399C108.93 9.36399 108.543 9.43501 108.216 9.57706C107.89 9.71555 107.636 9.90732 107.455 10.1523C107.277 10.3938 107.188 10.669 107.188 10.978C107.188 11.2372 107.249 11.4609 107.37 11.6491C107.494 11.8374 107.655 11.9954 107.854 12.1232C108.057 12.2475 108.273 12.3523 108.504 12.4375C108.735 12.5192 108.957 12.5866 109.17 12.6399L110.235 12.9169C110.583 13.0021 110.94 13.1175 111.306 13.2631C111.672 13.4087 112.011 13.6005 112.323 13.8384C112.636 14.0763 112.888 14.3711 113.08 14.7227C113.275 15.0742 113.373 15.495 113.373 15.9851C113.373 16.603 113.213 17.1516 112.893 17.631C112.577 18.1104 112.117 18.4886 111.514 18.7656C110.914 19.0426 110.187 19.1811 109.335 19.1811C108.518 19.1811 107.812 19.0515 107.215 18.7923C106.618 18.533 106.152 18.1655 105.814 17.6896C105.477 17.2102 105.29 16.642 105.255 15.9851H106.906C106.938 16.3793 107.066 16.7077 107.29 16.9705C107.517 17.2298 107.806 17.4233 108.158 17.5511C108.513 17.6754 108.902 17.7376 109.324 17.7376C109.79 17.7376 110.203 17.6648 110.566 17.5192C110.931 17.37 111.219 17.1641 111.428 16.9013C111.638 16.6349 111.743 16.3242 111.743 15.9691C111.743 15.646 111.65 15.3814 111.466 15.1754C111.285 14.9695 111.038 14.799 110.725 14.6641C110.416 14.5291 110.067 14.4102 109.676 14.3072L108.387 13.9556C107.513 13.7177 106.821 13.3679 106.31 12.9062C105.802 12.4446 105.548 11.8338 105.548 11.0739C105.548 10.4453 105.718 9.89666 106.059 9.42791C106.4 8.95916 106.862 8.59517 107.444 8.33594C108.027 8.07315 108.683 7.94176 109.415 7.94176C110.154 7.94176 110.805 8.07138 111.37 8.33061C111.938 8.58984 112.386 8.94673 112.712 9.40128C113.039 9.85227 113.209 10.3707 113.224 10.9567H111.636ZM122.355 8.09091H124.006V15.266C124.006 16.0295 123.827 16.706 123.468 17.2955C123.11 17.8814 122.605 18.343 121.955 18.6804C121.306 19.0142 120.544 19.1811 119.67 19.1811C118.8 19.1811 118.04 19.0142 117.39 18.6804C116.741 18.343 116.236 17.8814 115.878 17.2955C115.519 16.706 115.34 16.0295 115.34 15.266V8.09091H116.986V15.1328C116.986 15.6264 117.094 16.065 117.311 16.4485C117.531 16.832 117.841 17.1339 118.243 17.354C118.644 17.5707 119.12 17.679 119.67 17.679C120.224 17.679 120.702 17.5707 121.103 17.354C121.508 17.1339 121.817 16.832 122.03 16.4485C122.247 16.065 122.355 15.6264 122.355 15.1328V8.09091ZM126.399 19V8.09091H128.045V17.5831H132.988V19H126.399Z" fill="black"/>
</svg>
