<svg width="32" height="32" viewBox="0 0 32 32" fill="none" xmlns="http://www.w3.org/2000/svg">
<path d="M14.3334 15.9667L20.2334 10.0667C20.4334 9.8667 20.5278 9.63337 20.5167 9.3667C20.5056 9.10003 20.4 8.8667 20.2 8.6667C20 8.4667 19.7611 8.3667 19.4834 8.3667C19.2056 8.3667 18.9667 8.4667 18.7667 8.6667L12.1667 15.2667C12.0556 15.3778 11.9778 15.4889 11.9334 15.6C11.8889 15.7111 11.8667 15.8334 11.8667 15.9667C11.8667 16.1 11.8889 16.2223 11.9334 16.3334C11.9778 16.4445 12.0556 16.5556 12.1667 16.6667L18.8 23.3C19 23.5 19.2334 23.5945 19.5 23.5834C19.7667 23.5723 20 23.4667 20.2 23.2667C20.4 23.0667 20.5 22.8278 20.5 22.55C20.5 22.2723 20.4 22.0334 20.2 21.8334L14.3334 15.9667Z" fill="white"/>
</svg>
